<svg width="15" height="14" viewBox="0 0 15 14" fill="none" xmlns="http://www.w3.org/2000/svg">
<g clip-path="url(#clip0_27_80)">
<path d="M13.7531 7.84685L14.9842 2.43018C15.0731 2.03909 14.7758 1.66667 14.3747 1.66667H4.14604L3.90734 0.49974C3.84786 0.20888 3.59193 0 3.29503 0H0.625C0.279818 0 0 0.279818 0 0.625V1.04167C0 1.38685 0.279818 1.66667 0.625 1.66667H2.44487L4.27424 10.6103C3.83659 10.862 3.54167 11.3339 3.54167 11.875C3.54167 12.6804 4.19458 13.3333 5 13.3333C5.80542 13.3333 6.45833 12.6804 6.45833 11.875C6.45833 11.4668 6.29044 11.098 6.02021 10.8333H11.4798C11.2096 11.098 11.0417 11.4668 11.0417 11.875C11.0417 12.6804 11.6946 13.3333 12.5 13.3333C13.3054 13.3333 13.9583 12.6804 13.9583 11.875C13.9583 11.2976 13.6227 10.7986 13.136 10.5624L13.2796 9.93018C13.3685 9.53909 13.0712 9.16667 12.6702 9.16667H5.68013L5.50969 8.33333H13.1437C13.4355 8.33333 13.6885 8.13141 13.7531 7.84685Z" fill="#2E4053"/>
</g>
<defs>
<clipPath id="clip0_27_80">
<rect width="15" height="13.3333" fill="white"/>
</clipPath>
</defs>
</svg>
